<svg width="19" height="19" viewBox="0 0 19 19" fill="none" xmlns="http://www.w3.org/2000/svg">
<g clip-path="url(#clip0_315_218)">
<path d="M0.7195 8.42754C0.0960624 8.66504 -0.18968 9.41094 0.114617 10.0121C0.248211 10.283 0.456023 10.4723 0.730633 10.5762C0.927312 10.6504 1.00895 10.6504 9.49958 10.6504C17.9902 10.6504 18.0718 10.6504 18.2685 10.5762C18.5431 10.4723 18.7509 10.283 18.8845 10.0121C18.9847 9.81914 18.9996 9.74492 18.9996 9.5C18.9996 9.25508 18.9847 9.18086 18.8845 8.98789C18.7509 8.71699 18.5431 8.52773 18.2685 8.42383C18.0718 8.34961 17.9902 8.34961 9.48844 8.35332C1.06833 8.35332 0.905047 8.35332 0.7195 8.42754Z" fill="#282828"/>
</g>
<defs>
<clipPath id="clip0_315_218">
<rect width="19" height="19" fill="white"/>
</clipPath>
</defs>
</svg>
