<svg width="21" height="21" viewBox="0 0 21 21" fill="none" xmlns="http://www.w3.org/2000/svg">
<g clip-path="url(#clip0_315_205)">
<path d="M9.16544 0.0613857C7.53712 0.274667 6.01955 0.844784 4.67423 1.74713C2.50041 3.20318 0.950015 5.38521 0.306069 7.89537C0.0886867 8.74029 0.0312648 9.18736 0.010757 10.2538C-0.00564924 11.0003 0.00665545 11.3448 0.0558742 11.7713C0.453726 15.0526 2.36095 17.9278 5.24845 19.6176C6.29845 20.2288 7.50021 20.6594 8.7922 20.885C9.50587 21.0081 11.0193 21.0368 11.774 20.9383C16.294 20.3723 19.9115 17.0213 20.8139 12.5712C21.0067 11.6278 21.0559 10.1758 20.9369 9.18736C20.3463 4.44185 16.5565 0.652011 11.811 0.0613857C11.1875 -0.0124424 9.75607 -0.0124424 9.16544 0.0613857ZM11.6879 1.419C14.9897 1.83326 17.91 4.15474 19.083 7.30064C19.7188 9.00279 19.8254 10.9838 19.3783 12.7393C18.558 15.9467 16.0807 18.4651 12.8856 19.3428C11.0686 19.8391 9.00138 19.7366 7.23361 19.0598C4.50607 18.0139 2.39787 15.6678 1.63908 12.8295C1.24943 11.3653 1.24943 9.63443 1.63908 8.17017C2.06974 6.56236 2.93517 5.0858 4.12462 3.93736C6.1631 1.96451 8.87013 1.06627 11.6879 1.419Z" fill="#282828"/>
<path d="M10.1391 4.75781C10.0652 4.80293 9.9709 4.89727 9.92578 4.97109C9.84785 5.10234 9.84375 5.18438 9.84375 7.47305V9.84375H7.47715C5.18437 9.84375 5.10234 9.84785 4.97109 9.92578C4.77422 10.0488 4.67578 10.2334 4.67578 10.5C4.67578 10.7666 4.77422 10.9512 4.97109 11.0742C5.10234 11.1521 5.18437 11.1563 7.47715 11.1563H9.84375V13.5229C9.84375 15.8156 9.84785 15.8977 9.92578 16.0289C10.0488 16.2258 10.2334 16.3242 10.5 16.3242C10.7666 16.3242 10.9512 16.2258 11.0742 16.0289C11.1521 15.8977 11.1562 15.8156 11.1562 13.5229V11.1563H13.527C15.8156 11.1563 15.8977 11.1521 16.0289 11.0742C16.2258 10.9512 16.3242 10.7666 16.3242 10.5C16.3242 10.2334 16.2258 10.0488 16.0289 9.92578C15.8977 9.84785 15.8156 9.84375 13.527 9.84375H11.1562V7.47305C11.1562 5.18438 11.1521 5.10234 11.0742 4.97109C10.9512 4.77422 10.7666 4.67578 10.5 4.67578C10.3482 4.67578 10.2293 4.70039 10.1391 4.75781Z" fill="#282828"/>
</g>
<defs>
<clipPath id="clip0_315_205">
<rect width="21" height="21" fill="white"/>
</clipPath>
</defs>
</svg>
