<svg width="64" height="49" viewBox="0 0 64 49" fill="none" xmlns="http://www.w3.org/2000/svg">
<path d="M29.8359 0.745581C30.5884 0.733949 31.8866 0.794062 32.7197 0.878394C33.5528 0.962756 34.9131 1.20078 35.7461 1.40574C36.579 1.61214 37.6815 1.94087 38.1963 2.13718C38.7109 2.33347 39.6848 2.78583 40.3594 3.14207C41.0339 3.49976 41.9492 4.06748 42.3945 4.40476C42.8414 4.74066 43.4946 5.27833 43.8477 5.59812C44.2009 5.91809 44.8306 6.57252 45.2471 7.05222C45.6637 7.53209 46.3078 8.41469 46.6768 9.01511C47.0472 9.61418 47.5832 10.6948 47.8672 11.4145C48.1526 12.1343 48.4964 13.181 48.6318 13.7407C48.7659 14.3005 48.9215 15.1805 49.0801 16.6343L49.9434 17.2231C50.4176 17.5474 51.298 18.303 51.9004 18.9018C52.5015 19.5009 53.3309 20.516 53.7432 21.1557C54.154 21.7955 54.68 22.7776 54.9092 23.3374C55.1398 23.8973 55.4657 24.8785 55.6328 25.518C55.8101 26.1898 55.9744 27.3877 56.0234 28.353C56.0753 29.365 56.0403 30.5435 55.9336 31.3344C55.837 32.0542 55.5939 33.1665 55.3936 33.8061C55.1932 34.4459 54.8335 35.3615 54.5957 35.8413C54.3579 36.3211 53.906 37.1066 53.5889 37.5864C53.145 38.2609 53.037 38.5412 53.1133 38.8218C53.1666 39.0224 53.3489 39.4142 53.5176 39.6948C53.6877 39.9755 54.2572 40.6615 54.7832 41.2212C55.38 41.8551 55.81 42.4587 55.9238 42.8208C56.0247 43.1407 56.0681 43.631 56.0205 43.9116C55.9743 44.1922 55.787 44.6487 55.6055 44.9292C55.4239 45.2097 54.9839 45.5857 54.6279 45.7661C54.0816 46.0438 53.7556 46.0932 52.5391 46.0874C51.7463 46.0845 50.6105 45.9928 50.0166 45.8852C49.4213 45.7776 48.4164 45.4874 47.7822 45.2387C47.148 44.9901 46.2399 44.548 44.8994 43.7251L43.7461 43.9604C43.1119 44.0898 41.8798 44.2677 41.0078 44.355C39.8475 44.4698 38.9579 44.4683 37.6924 44.3491C36.741 44.2589 35.3786 44.0481 34.665 43.8823C33.9516 43.7151 32.7843 43.343 32.0693 43.0552C31.3558 42.7658 30.2888 42.2361 29.6992 41.8755C29.1097 41.5148 28.1426 40.7949 27.5488 40.2759C26.955 39.7568 26.1215 38.8727 25.6963 38.313C25.2711 37.7531 24.6458 36.7394 24.3057 36.0591C23.9657 35.3791 23.6604 34.734 23.627 34.6245C23.5823 34.4776 23.3984 34.54 22.917 34.8686C22.5608 35.1129 21.7493 35.5535 21.1152 35.8501C20.4809 36.1467 19.3451 36.5523 18.5928 36.7514C17.46 37.0523 16.8633 37.1178 15.1338 37.1323C13.4358 37.1468 12.963 37.1045 12.6113 36.9096C12.3736 36.7759 12.0363 36.5147 11.8633 36.3286C11.6889 36.1411 11.4448 35.7414 11.3223 35.4419C11.1983 35.1423 11.0972 34.7491 11.0986 34.5688C11.0987 34.3884 11.1639 33.9961 11.2432 33.6968C11.3441 33.3129 11.7175 32.8187 12.5088 32.0249C13.3131 31.2179 13.7877 30.5876 14.7275 28.7163L14.0479 27.6987C13.6745 27.1389 13.1499 26.239 12.8818 25.6997C12.6137 25.1603 12.2709 24.3747 12.1182 23.9546C11.9668 23.5344 11.7451 22.8325 11.624 22.3921C11.5044 21.9515 11.3356 21.0847 11.252 20.4653C11.1669 19.846 11.0977 18.7993 11.0977 18.1391C11.0977 17.479 11.1699 16.3501 11.2578 15.6303C11.3458 14.9106 11.5735 13.7653 11.7666 13.0864C11.9597 12.4074 12.3613 11.3268 12.6611 10.687C12.961 10.0472 13.5572 9.00058 13.9824 8.36082C14.4091 7.72105 15.2316 6.72316 15.8096 6.14304C16.389 5.56296 17.3331 4.75625 17.9082 4.3491C18.4833 3.94199 19.5041 3.32701 20.1787 2.98386C20.8533 2.64072 21.9877 2.16323 22.7012 1.92332C23.4147 1.68341 24.4848 1.37985 25.0801 1.24753C25.6739 1.11527 26.6794 0.954076 27.3135 0.887183C27.9476 0.820312 29.0835 0.755779 29.8359 0.745581ZM49.0322 20.938C48.9658 20.9385 48.7696 21.5429 48.5967 22.2827C48.4237 23.0228 48.0047 24.2503 47.666 25.0093C47.3258 25.7682 46.729 26.8819 46.3369 27.4809C45.9449 28.0814 45.073 29.1296 44.3984 29.81C43.7239 30.4919 42.6209 31.4163 41.9463 31.8657C41.2731 32.315 40.3964 32.8462 40 33.0454C39.6035 33.2432 38.6639 33.6369 37.9102 33.9204C37.1563 34.2025 35.8272 34.5853 34.9551 34.77C33.6233 35.0506 32.9254 35.1055 30.5947 35.1098C28.4744 35.1127 27.8203 35.1568 27.8203 35.2964C27.8213 35.3976 28.355 36.0429 29.0088 36.73C29.6632 37.4192 30.6211 38.2648 31.1357 38.6108C31.6517 38.9554 32.5595 39.4644 33.1533 39.7407C33.7486 40.0184 34.7868 40.3821 35.46 40.5493C36.1346 40.7165 37.2371 40.8954 37.9102 40.9448C38.5847 40.9957 39.8486 40.9622 40.7207 40.8735C41.5928 40.7848 42.9886 40.5379 43.8203 40.3257C44.6664 40.1105 45.4926 39.9794 45.6943 40.0288C45.8935 40.0771 46.4436 40.4186 46.9189 40.7876C47.3946 41.1569 48.1244 41.6181 48.541 41.813C48.9576 42.0078 49.6526 42.2478 50.085 42.3481C50.5185 42.4484 50.9077 42.4967 50.9512 42.4575C50.9959 42.4182 50.7442 41.8293 50.3926 41.1489C50.0424 40.4685 49.6478 39.4548 49.5137 38.895C49.2902 37.9586 49.2886 37.8358 49.499 37.3677C49.6259 37.087 49.9951 36.532 50.3193 36.1323C50.6437 35.7324 51.1603 34.8814 51.4688 34.2417C51.7771 33.6021 52.1294 32.6863 52.2549 32.2065C52.3788 31.7268 52.5173 30.68 52.5635 29.8803C52.6197 28.896 52.5768 28.026 52.4326 27.1899C52.3159 26.5096 52.0479 25.5284 51.8389 25.0093C51.6299 24.4903 51.2483 23.7151 50.9902 23.2905C50.7337 22.8645 50.2141 22.1603 49.8379 21.727C49.4618 21.2924 49.0985 20.938 49.0322 20.938ZM30.7031 4.29246C29.4737 4.26047 28.0151 4.29697 27.46 4.37546C26.905 4.45253 25.963 4.63879 25.3691 4.78855C24.7739 4.93689 23.7698 5.26069 23.1357 5.50632C22.5015 5.75349 21.4633 6.27686 20.8291 6.67234C20.1949 7.06637 19.2603 7.77201 18.7529 8.23875C18.2441 8.7055 17.555 9.44673 17.2207 9.88718C16.8863 10.3278 16.3821 11.1118 16.0996 11.6323C15.8157 12.1528 15.4266 13.0685 15.2334 13.6675C15.0403 14.2679 14.7992 15.3802 14.6982 16.1391C14.5858 16.9825 14.5482 18.0867 14.6016 18.9751C14.6506 19.7746 14.8195 20.9199 14.9766 21.519C15.1351 22.1194 15.4366 23.002 15.6484 23.4819C15.8589 23.9617 16.2614 24.7142 16.541 25.1548C16.8192 25.5953 17.2965 26.2498 17.6006 26.6089C17.9046 26.968 18.1957 27.4914 18.2461 27.7719C18.2993 28.073 18.2404 28.6679 18.1006 29.2261C17.9708 29.7451 17.6809 30.5637 17.4561 31.0434C17.2326 31.5233 16.8136 32.259 16.5254 32.6792C16.2373 33.0992 16.0496 33.4765 16.1084 33.519C16.1675 33.5612 16.4107 33.5922 16.6484 33.5893C16.8863 33.585 17.4706 33.4815 17.9463 33.3579C18.4219 33.2328 19.2923 32.8913 19.8818 32.5962C20.4714 32.3025 21.2172 31.8255 21.54 31.5376C21.8629 31.2512 22.2725 30.9402 22.4512 30.8471C22.6299 30.7557 22.9693 30.6793 23.207 30.6792C23.4449 30.6792 24.1747 30.8349 24.8291 31.0268C25.4835 31.2173 26.6019 31.4543 27.3154 31.5532C28.1572 31.671 29.446 31.7061 30.9912 31.6538C32.692 31.5956 33.7184 31.4852 34.5947 31.2671C35.2693 31.0999 36.2741 30.7933 36.8291 30.5854C37.3841 30.379 38.2608 29.9784 38.7754 29.6977C39.29 29.4156 40.0697 28.9174 40.5049 28.5903C40.9402 28.2617 41.6381 27.6482 42.0547 27.228C42.4713 26.8078 43.0835 26.0543 43.415 25.5542C43.748 25.054 44.2293 24.1872 44.4844 23.6274C44.7395 23.0676 45.0857 22.0865 45.2529 21.4468C45.4201 20.807 45.5955 19.6293 45.6445 18.8296C45.6993 17.9354 45.6632 16.8724 45.5508 16.0669C45.4499 15.3471 45.2093 14.2665 45.0176 13.6675C44.8244 13.067 44.4372 12.1528 44.1533 11.6323C43.8708 11.1118 43.3657 10.3277 43.0312 9.88718C42.6954 9.44665 41.9983 8.69504 41.4795 8.21531C40.962 7.73551 39.9961 7.01556 39.3359 6.6157C38.6758 6.21585 37.5494 5.66937 36.833 5.40183C36.1166 5.13431 34.9478 4.78836 34.2344 4.63425C33.3854 4.44961 32.1661 4.33172 30.7031 4.29246Z" fill="#282828"/>
</svg>
