<svg width="18" height="18" viewBox="0 0 18 18" fill="none" xmlns="http://www.w3.org/2000/svg">
<path d="M8.5248 0.110757C8.5826 0.0780761 8.6753 0.0378823 8.73122 0.0206028C8.78677 0.00369882 8.93351 -0.00456532 9.05736 0.00257189C9.18872 0.00970911 9.34522 0.0472734 9.43267 0.0919749C9.51524 0.134798 9.64547 0.234344 9.72166 0.313604C9.79822 0.392489 9.89092 0.525091 9.92808 0.607733C9.9915 0.748974 9.99676 1.03521 10.0332 10.0458L11.6282 8.71411C12.5057 7.9816 13.2908 7.34602 13.3734 7.30131C13.4886 7.23933 13.5888 7.22093 13.805 7.22093C14.0189 7.22093 14.1225 7.23971 14.2366 7.30019C14.3192 7.34376 14.4438 7.43617 14.5136 7.50566C14.583 7.57516 14.6746 7.70814 14.717 7.80129C14.7662 7.90986 14.7943 8.0511 14.7951 8.19572C14.7962 8.37115 14.7722 8.47107 14.6862 8.64649C14.5796 8.86361 14.4836 8.94851 12.0606 10.9702C10.6772 12.1242 9.48634 13.0949 9.4139 13.1272C9.34147 13.1595 9.18121 13.1929 9.05736 13.2015C8.89748 13.2128 8.78076 13.1974 8.65503 13.1482C8.52743 13.0982 7.77006 12.4874 5.93968 10.9567C3.5531 8.9609 3.39585 8.82192 3.30352 8.62771C3.23071 8.47445 3.20594 8.36288 3.20707 8.19572C3.20782 8.0511 3.23597 7.90986 3.28513 7.80129C3.32754 7.70851 3.41912 7.57516 3.48855 7.50566C3.55836 7.43617 3.68296 7.34376 3.76553 7.30019C3.87962 7.23971 3.9832 7.22093 4.19713 7.22093C4.41406 7.22093 4.51314 7.23933 4.62873 7.30169C4.7113 7.34639 5.50095 7.98423 7.98774 10.0552L7.99712 5.40657C8.00613 1.02357 8.01025 0.74935 8.07406 0.607733C8.11121 0.525091 8.20391 0.392865 8.28048 0.313604C8.35666 0.234344 8.46663 0.143062 8.5248 0.110757Z" fill="#282828"/>
<path d="M0.294793 12.3091C0.423148 12.1806 0.538743 12.1044 0.660718 12.0675C0.758673 12.0379 0.906544 12.0123 0.989112 12.0108C1.07168 12.0089 1.21542 12.033 1.30812 12.0638C1.4012 12.0946 1.5517 12.1836 1.64327 12.2614C1.73635 12.341 1.84707 12.4853 1.89623 12.5908C1.9818 12.776 1.98293 12.7978 1.9833 14.1122C1.9833 14.9051 1.99906 15.499 2.02196 15.5772C2.04298 15.6497 2.11466 15.7642 2.18146 15.8319C2.24827 15.8998 2.36199 15.9716 2.43405 15.9915C2.51586 16.014 5.00153 16.0276 9.00193 16.0276C13.0023 16.0276 15.488 16.014 15.5698 15.9915C15.6422 15.9716 15.7556 15.8998 15.8224 15.8319C15.8892 15.7642 15.9609 15.6497 15.9819 15.5772C16.0048 15.499 16.0206 14.9051 16.0206 14.1122C16.0209 12.7978 16.0221 12.776 16.1076 12.5908C16.1568 12.4853 16.2675 12.341 16.3606 12.2614C16.4522 12.1836 16.6027 12.0946 16.6957 12.0638C16.7888 12.033 16.9235 12.0078 16.996 12.0078C17.0684 12.0078 17.2159 12.0334 17.3244 12.0645C17.4692 12.1062 17.571 12.1708 17.7091 12.3091C17.8464 12.4466 17.9121 12.5499 17.9541 12.6941C18.0026 12.8598 18.0101 13.1302 17.9887 15.8965L17.8873 16.197C17.8314 16.3623 17.7222 16.6061 17.6445 16.739C17.5665 16.872 17.3844 17.1004 17.2396 17.2462C17.0951 17.3923 16.8673 17.5756 16.7329 17.6537C16.5989 17.7315 16.3542 17.8415 15.8888 18.0001H2.11504L1.81479 17.8979C1.64965 17.8415 1.4057 17.7315 1.27284 17.6537C1.13961 17.5756 0.911799 17.3923 0.766179 17.2465C0.62056 17.1008 0.43741 16.8728 0.359346 16.7394C0.281657 16.6064 0.172443 16.3623 0.0151889 15.8965L0.00392964 14.3939C-0.00620367 13.1302 0.00130248 12.8598 0.0497172 12.6941C0.0917516 12.5499 0.15743 12.4466 0.294793 12.3091Z" fill="#282828"/>
</svg>
