<svg width="32" height="34" viewBox="0 0 32 34" fill="none" xmlns="http://www.w3.org/2000/svg">
<circle cx="15" cy="15" r="15" fill="#EEA056"/>
<path d="M9.00781 22C9.00781 19.368 9.95156 16.8232 11.6677 14.8276C13.3839 12.8321 15.7587 11.518 18.3611 11.124C20.9634 10.7299 23.6208 11.2821 25.8508 12.6802C28.0808 14.0783 29.7356 16.2296 30.5148 18.7436C31.2939 21.2577 31.1458 23.9678 30.0973 26.382C29.0488 28.7961 27.1695 30.7543 24.8004 31.9011C22.4313 33.0478 19.7296 33.3071 17.1857 32.6318C14.6418 31.9566 11.4963 29.6707 10.0078 27.5" stroke="#282828" stroke-width="2" stroke-linecap="round"/>
<path d="M6.60706 18.1039L8.84712 22.3548L12.2878 19.0008" stroke="#282828" stroke-width="2" stroke-linecap="round" stroke-linejoin="round"/>
<path d="M20.0067 17L19.1406 23L23.5067 26" stroke="#282828" stroke-width="2" stroke-linecap="round"/>
</svg>
