<svg width="30" height="36" viewBox="0 0 30 36" fill="none" xmlns="http://www.w3.org/2000/svg">
<circle cx="15" cy="15" r="15" fill="#8AC475"/>
<path d="M16.657 15.9998C16.8072 15.8274 17.0309 15.6486 17.1538 15.6034C17.2767 15.5571 17.5782 15.5161 17.824 15.5118C18.0698 15.5086 18.4007 15.5732 18.5593 15.6562C18.7179 15.7402 18.9501 15.9222 19.074 16.0601C19.199 16.199 19.3524 16.5071 19.4154 16.744C19.4816 16.9928 19.5299 18.1539 19.5299 21.8064L19.8272 21.4294C19.9921 21.2215 20.2873 20.9845 20.4847 20.9005C20.6959 20.8111 21.0383 20.7691 21.3167 20.7982C21.5761 20.8262 21.9186 20.9425 22.0772 21.0578C22.2347 21.173 22.4585 21.4617 22.574 21.6986C22.719 21.9959 22.7841 22.346 22.7862 23.5297L23.0835 23.1527C23.2473 22.9448 23.5898 22.6874 23.8461 22.5786C24.1318 22.458 24.4312 22.4063 24.6255 22.4451C24.7988 22.4785 25.094 22.6034 25.282 22.7219C25.47 22.8404 25.7179 23.0946 25.8335 23.2874C25.9784 23.5297 26.0425 23.827 26.0436 24.2567C26.0436 24.5971 26.0688 24.8761 26.0992 24.8761C26.1308 24.8761 26.3198 24.707 26.5194 24.4991C26.72 24.2912 27.0614 24.0758 27.2778 24.0187C27.5247 23.9541 27.8282 23.953 28.0919 24.0155C28.344 24.0758 28.6591 24.2686 29.2474 24.8793L29.2789 27.7045C29.2999 29.5636 29.2705 30.6967 29.1917 31.0155C29.1255 31.2826 28.8923 31.8879 28.6717 32.3618C28.4511 32.8358 28.1371 33.6597 27.9753 34.1929C27.8125 34.7261 27.595 35.2474 27.4911 35.3508C27.3188 35.5253 26.9186 35.5393 22.2358 35.5425C17.3009 35.5468 17.1601 35.5414 16.8786 35.3271C16.72 35.2075 16.5908 35.0233 16.5919 34.9199C16.5929 34.8165 16.4711 34.2468 16.3219 33.6544C16.1727 33.062 15.8618 32.1658 15.6307 31.6617C15.2473 30.8281 15.0656 30.5976 13.5971 29.0767C12.7105 28.159 11.9332 27.2737 11.8713 27.111C11.8093 26.9484 11.7578 26.6328 11.7578 26.4109C11.7578 26.189 11.8408 25.8379 11.9416 25.6322C12.0425 25.4265 12.2904 25.1464 12.4931 25.0096C12.7347 24.847 13.0141 24.763 13.3072 24.7651C13.553 24.7673 13.8839 24.8211 14.0425 24.8858C14.2011 24.9504 14.7463 25.4221 16.1748 26.8687L16.1717 21.9679C16.1706 18.9434 16.2106 16.9228 16.2767 16.6902C16.3356 16.4823 16.5068 16.1721 16.657 15.9998Z" fill="#282828"/>
<path d="M8.95423 12.7776C9.15645 12.6124 9.51245 12.4096 9.74416 12.327C9.97587 12.2434 10.4256 12.1744 10.7447 12.1734C11.106 12.1713 11.502 12.2507 11.798 12.3835C12.0581 12.5006 12.4299 12.7462 12.6237 12.9302C12.8165 13.1131 13.0766 13.4518 13.1998 13.6818C13.3726 14.0027 13.4252 14.2828 13.4252 14.8839C13.4252 15.4849 13.3726 15.7651 13.1998 16.086C13.0766 16.3159 12.8165 16.6546 12.6237 16.8376C12.4299 17.0215 12.0581 17.2672 11.798 17.3843C11.5273 17.5055 11.0976 17.5975 10.7974 17.5985C10.5078 17.5996 10.0928 17.5536 9.87581 17.4961C9.65885 17.4397 9.28179 17.24 9.03954 17.0529C8.78571 16.8585 8.46974 16.4675 8.29912 16.1382C8.06003 15.6804 8 15.4253 8 14.8839C8 14.3455 8.06109 14.0873 8.2928 13.641C8.45394 13.3305 8.75201 12.9427 8.95423 12.7776Z" fill="#282828"/>
<path d="M23.623 13.8828C24.4107 12.6338 25.1341 11.5514 25.2313 11.4768C25.3284 11.4022 25.5564 11.3406 25.7375 11.3384C25.9438 11.3373 26.1554 11.4292 26.2995 11.5817C26.4271 11.7179 27.1505 12.8015 27.9067 13.9909C28.6846 15.2161 29.2837 16.2704 29.2858 16.424C29.2891 16.5721 29.192 16.8035 29.0709 16.9376C28.8516 17.1798 28.8298 17.1809 25.6863 17.1809C22.5264 17.1809 22.522 17.1809 22.3573 16.9376C22.2667 16.8035 22.1925 16.5732 22.1914 16.424C22.1914 16.2629 22.7708 15.2334 23.623 13.8828Z" fill="#282828"/>
<path d="M15.0977 8.43297L15.3835 8.21597C15.6507 8.01356 15.8045 8 20.0031 8L20.5229 8.52166V10.7648C20.5229 12.8691 20.5104 13.0204 20.315 13.2166C20.1195 13.4127 19.9688 13.4252 17.8201 13.4252C15.6715 13.4252 15.5207 13.4127 15.3253 13.2166C15.1309 13.0215 15.1164 12.8618 15.0977 8.43297Z" fill="#282828"/>
</svg>
