<svg width="29" height="29" viewBox="0 0 29 29" fill="none" xmlns="http://www.w3.org/2000/svg">
<path d="M14.1932 4.58789C14.1025 4.61621 13.9666 4.69551 13.893 4.76914C13.5814 5.05801 13.5928 4.87676 13.5928 9.40234V13.5937H9.37871H5.17031L4.9834 13.7184C4.66055 13.9393 4.55859 14.1262 4.55859 14.5C4.55859 14.8738 4.66055 15.0607 4.9834 15.2816L5.17031 15.4062H9.37871H13.5928V19.6203V23.8287L13.723 24.0156C13.9383 24.3385 14.1252 24.4404 14.499 24.4404C14.8729 24.4404 15.0598 24.3385 15.2807 24.0156L15.4053 23.8287V19.6203V15.4062H19.6193H23.8277L24.0146 15.276C24.3375 15.0607 24.4395 14.8738 24.4395 14.5C24.4395 14.1262 24.3375 13.9393 24.0146 13.7184L23.8277 13.5937H19.6193H15.4053V9.37969V5.17129L15.2807 4.98437C15.207 4.88242 15.0881 4.75215 15.0088 4.68984C14.8389 4.5709 14.4197 4.51426 14.1932 4.58789Z" fill="#282828"/>
</svg>
