<svg width="17" height="15" viewBox="0 0 17 15" fill="none" xmlns="http://www.w3.org/2000/svg">
<path d="M2.01743 1.03881C1.73665 1.31246 1.63965 1.19083 4.8865 4.41887L7.8883 7.3986L4.8865 10.3783C1.63965 13.6064 1.73665 13.4848 2.01743 13.7584C2.29311 14.0371 2.17059 14.1334 5.42254 10.9104L8.42434 7.9307L11.4261 10.9104C14.6781 14.1334 14.5556 14.0371 14.8312 13.7584C15.112 13.4848 15.209 13.6064 11.9622 10.3783L8.96038 7.3986L11.9622 4.41887C15.209 1.19083 15.112 1.31246 14.8312 1.03881C14.5556 0.760091 14.6781 0.663807 11.4261 3.88678L8.42434 6.86651L5.42254 3.88678C2.17059 0.663807 2.29311 0.760091 2.01743 1.03881Z" fill="#282828"/>
</svg>
